<svg class="svg-icon" style="width: 1em; height: 1em;vertical-align: middle;fill: currentColor;overflow: hidden;" viewBox="0 0 1024 1024" version="1.1" xmlns="http://www.w3.org/2000/svg"><path d="M552 608h-80c-30.8 0-56-25.2-56-56v-80c0-30.8 25.2-56 56-56h80c30.8 0 56 25.2 56 56v80c0 30.8-25.2 56-56 56z m-200-48v-96c0-36.4 17.4-68.8 44.4-89.2C384 320 192 192 128 192c-35.2 0-64 28.8-64 64v512c0 35.2 28.6 64 64 64 64 0 256-128 268.4-182.8-27-20.4-44.4-52.8-44.4-89.2zM896 192c-64 0-256 128-268.4 182.8 27 20.4 44.4 52.8 44.4 89.2v96c0 36.4-17.4 68.8-44.4 89.2C640 704 832 832 896 832c35.4 0 64-28.8 64-64V256c0-35.2-28.8-64-64-64z"  /></svg>